<svg width="34" xmlns="http://www.w3.org/2000/svg" height="34" id="screenshot-076e9449-6578-809e-8007-7bcc082d959a" viewBox="439 460 34 34" style="-webkit-print-color-adjust::exact" xmlns:xlink="http://www.w3.org/1999/xlink" fill="none" version="1.1">
  <g id="shape-076e9449-6578-809e-8007-7bcc082d959a">
    <g class="fills" id="fills-076e9449-6578-809e-8007-7bcc082d959a">
      <path d="M448.5719909667969,474L443.0000305175781,477L448.5719909667969,480M448.5719909667969,474L456.0000305175781,478L463.4280090332031,474M448.5719909667969,474L443.0000305175781,471L456.0000305175781,464L469.0000305175781,471L463.4280090332031,474M463.4280090332031,474L469.0000305175781,477L463.4280090332031,480M463.4280090332031,480L469.0000305175781,483L456.0000305175781,490L443.0000305175781,483L448.5719909667969,480M463.4280090332031,480L456.0000305175781,484L448.5719909667969,480" fill="none" stroke-linecap="round" stroke-linejoin="round" style="fill:none">
      </path>
    </g>
    <g fill="none" stroke-linecap="round" stroke-linejoin="round" id="strokes-d7cc3d79-eab7-8042-8007-7c2f31ea92a3-076e9449-6578-809e-8007-7bcc082d959a" class="strokes">
      <g class="stroke-shape">
        <path d="M448.5719909667969,474L443.0000305175781,477L448.5719909667969,480M448.5719909667969,474L456.0000305175781,478L463.4280090332031,474M448.5719909667969,474L443.0000305175781,471L456.0000305175781,464L469.0000305175781,471L463.4280090332031,474M463.4280090332031,474L469.0000305175781,477L463.4280090332031,480M463.4280090332031,480L469.0000305175781,483L456.0000305175781,490L443.0000305175781,483L448.5719909667969,480M463.4280090332031,480L456.0000305175781,484L448.5719909667969,480" style="fill:none;fill-opacity:none;stroke-width:1.5;stroke:#9CA3AF;stroke-opacity:1">
        </path>
      </g>
    </g>
  </g>
</svg>