<svg width="25" xmlns="http://www.w3.org/2000/svg" height="25.001" id="screenshot-076e9449-6578-809e-8007-7bc02183678a" viewBox="435 558 25 25.001" style="-webkit-print-color-adjust::exact" xmlns:xlink="http://www.w3.org/1999/xlink" fill="none" version="1.1">
  <g id="shape-076e9449-6578-809e-8007-7bc02183678a">
    <g class="fills" id="fills-076e9449-6578-809e-8007-7bc02183678a">
      <path d="M459.4137268066406,564.1721801757812L453.8287658691406,558.5859985351562C453.4536437988281,558.2108154296875,452.94488525390625,558.0000610351562,452.41436767578125,558.0000610351562C451.8838806152344,558.0000610351562,451.3750915527344,558.2108154296875,451,558.5859985351562L435.58624267578125,574.0009765625C435.20947265625,574.374755859375,434.9983215332031,574.8839721679688,435,575.4147338867188L435,581.0009765625C435,582.1055297851562,435.8954162597656,583.0009765625,437,583.0009765625L442.58624267578125,583.0009765625C443.1169738769531,583.002685546875,443.626220703125,582.7914428710938,444,582.4147338867188L459.4137268066406,567.0009765625C459.7889099121094,566.6259155273438,459.99969482421875,566.1171264648438,459.99969482421875,565.5866088867188C459.99969482421875,565.0560913085938,459.7889099121094,564.5473022460938,459.4137268066406,564.1721801757812ZM437.4137268066406,575.0009765625L448,564.4147338867188L450.08624267578125,566.5009765625L439.5,577.0859985351562ZM437,577.4147338867188L440.58624267578125,581.0009765625L437,581.0009765625ZM443,580.5872192382812L440.9137268066406,578.5009765625L451.5,567.9147338867188L453.58624267578125,570.0009765625ZM455,568.5872192382812L449.4137268066406,563.0009765625L452.4137268066406,560.0009765625L458,565.5859985351562Z" style="fill:#9CA3AF">
      </path>
    </g>
  </g>
</svg>