<svg width="29.333" xmlns="http://www.w3.org/2000/svg" height="21.333" id="screenshot-076e9449-6578-809e-8007-7bc0d4c44421" viewBox="433.333 658.333 29.333 21.333" style="-webkit-print-color-adjust::exact" xmlns:xlink="http://www.w3.org/1999/xlink" fill="none" version="1.1">
  <g id="shape-076e9449-6578-809e-8007-7bc0d4c44421">
    <g class="fills" id="fills-076e9449-6578-809e-8007-7bc0d4c44421">
      <path d="M454.6666259765625,665.2666625976562L461.6177062988281,660.4009399414062C461.9193115234375,660.1897583007812,462.3350830078125,660.26318359375,462.5461120605469,660.5647583007812C462.6245422363281,660.6768188476562,462.6666259765625,660.810302734375,462.6666259765625,660.9470825195312L462.6666259765625,677.052978515625C462.6666259765625,677.4210815429688,462.3681335449219,677.7196655273438,461.9999694824219,677.7196655273438C461.8631591796875,677.7196655273438,461.7297058105469,677.677490234375,461.6177062988281,677.59912109375L454.6666259765625,672.7333374023438L454.6666259765625,678.3333129882812C454.6666259765625,679.0697631835938,454.0697021484375,679.6666870117188,453.3332824707031,679.6666870117188L434.6666259765625,679.6666870117188C433.9302978515625,679.6666870117188,433.3332824707031,679.0697631835938,433.3332824707031,678.3333129882812L433.3332824707031,659.6666870117188C433.3332824707031,658.9303588867188,433.9302978515625,658.3333129882812,434.6666259765625,658.3333129882812L453.3332824707031,658.3333129882812C454.0697021484375,658.3333129882812,454.6666259765625,658.9303588867188,454.6666259765625,659.6666870117188L454.6666259765625,665.2666625976562ZM454.6666259765625,669.478271484375L459.9999694824219,673.2116088867188L459.9999694824219,664.7883911132812L454.6666259765625,668.521728515625L454.6666259765625,669.478271484375ZM435.9999694824219,661L435.9999694824219,677L451.9999694824219,677L451.9999694824219,661L435.9999694824219,661Z" stroke="none" stroke-width="0" style="fill:#9CA3AF">
      </path>
    </g>
  </g>
</svg>