<svg width="55.21" xmlns="http://www.w3.org/2000/svg" height="50.361" id="screenshot-076e9449-6578-809e-8007-7bb4d8208a7d" viewBox="1919.821 885.819 55.21 50.361" style="-webkit-print-color-adjust::exact" xmlns:xlink="http://www.w3.org/1999/xlink" fill="none" version="1.1">
  <g id="shape-076e9449-6578-809e-8007-7bb4d8208a7d">
    <g class="fills" id="fills-076e9449-6578-809e-8007-7bb4d8208a7d">
      <path d="M1960.7933349609375,885.8192138671875L1964.0355224609375,891.5891723632812L1970.114501953125,894.66650390625L1964.0355224609375,897.7437744140625L1960.7933349609375,903.5137329101562L1957.5511474609375,897.7437744140625L1951.471923828125,894.66650390625L1957.5511474609375,891.5891723632812L1960.7933349609375,885.8192138671875ZM1945.223876953125,904.7775268554688L1957.5155029296875,910.9998168945312L1945.223876953125,917.2221069335938L1938.6683349609375,928.8887329101562L1932.112548828125,917.2221069335938L1919.8209228515625,910.9998168945312L1932.112548828125,904.7775268554688L1938.6683349609375,893.1109008789062L1945.223876953125,904.7775268554688ZM1947.067626953125,910.9998168945312L1941.5897216796875,908.2268676757812L1938.6683349609375,903.0275268554688L1935.7467041015625,908.2268676757812L1930.268798828125,910.9998168945312L1935.7467041015625,913.7726440429688L1938.6683349609375,918.9721069335938L1941.5897216796875,913.7726440429688L1947.067626953125,910.9998168945312ZM1967.348876953125,921.1110229492188L1963.251708984375,913.8193359375L1959.154296875,921.1110229492188L1951.471923828125,924.9998168945312L1959.154296875,928.8887329101562L1963.251708984375,936.180419921875L1967.348876953125,928.8887329101562L1975.0311279296875,924.9998168945312L1967.348876953125,921.1110229492188Z" stroke="none" stroke-width="0" style="fill:#9CA3AF;fill-opacity:1">
      </path>
    </g>
  </g>
</svg>
