<svg width="35.588" xmlns="http://www.w3.org/2000/svg" height="29.603" id="screenshot-076e9449-6578-809e-8007-7baef792536f" viewBox="2153.206 744.787 35.588 29.603" style="-webkit-print-color-adjust::exact" xmlns:xlink="http://www.w3.org/1999/xlink" fill="none" version="1.1">
  <g id="shape-076e9449-6578-809e-8007-7baef792536f">
    <g class="fills" id="fills-076e9449-6578-809e-8007-7baef792536f">
      <path d="M2185.558837890625,769.4558715820312L2185.558837890625,774.3897094726562L2182.323486328125,774.3897094726562L2182.323486328125,769.4558715820312L2179.088134765625,769.4558715820312L2179.088134765625,766.1666870117188L2188.794189453125,766.1666870117188L2188.794189453125,769.4558715820312L2185.558837890625,769.4558715820312ZM2159.676513671875,769.4558715820312L2159.676513671875,774.3897094726562L2156.441162109375,774.3897094726562L2156.441162109375,769.4558715820312L2153.205810546875,769.4558715820312L2153.205810546875,766.1666870117188L2162.911865234375,766.1666870117188L2162.911865234375,769.4558715820312L2159.676513671875,769.4558715820312ZM2169.38232421875,749.7205810546875L2169.38232421875,744.7867431640625L2172.61767578125,744.7867431640625L2172.61767578125,749.7205810546875L2175.85302734375,749.7205810546875L2175.85302734375,753.009765625L2166.14697265625,753.009765625L2166.14697265625,749.7205810546875L2169.38232421875,749.7205810546875ZM2169.38232421875,756.2990112304688L2172.61767578125,756.2990112304688L2172.61767578125,774.3897094726562L2169.38232421875,774.3897094726562L2169.38232421875,756.2990112304688ZM2156.441162109375,762.87744140625L2156.441162109375,744.7867431640625L2159.676513671875,744.7867431640625L2159.676513671875,762.87744140625L2156.441162109375,762.87744140625ZM2182.323486328125,762.87744140625L2182.323486328125,744.7867431640625L2185.558837890625,744.7867431640625L2185.558837890625,762.87744140625L2182.323486328125,762.87744140625Z" stroke="none" stroke-width="0" style="fill:#b4afb3">
      </path>
    </g>
  </g>
</svg>