<svg width="31.667" xmlns="http://www.w3.org/2000/svg" height="31.667" id="screenshot-076e9449-6578-809e-8007-7bb40947b06a" viewBox="771.34 857.667 31.667 31.667" style="-webkit-print-color-adjust::exact" xmlns:xlink="http://www.w3.org/1999/xlink" fill="none" version="1.1">
  <g id="shape-076e9449-6578-809e-8007-7bb40947b06a">
    <g class="fills" id="fills-076e9449-6578-809e-8007-7bb40947b06a">
      <path d="M803.0061645507812,873.5C803.0061645507812,864.7554321289062,795.917236328125,857.6666870117188,787.1728515625,857.6666870117188C781.9932861328125,857.6666870117188,777.3947143554688,860.1536865234375,774.5059814453125,863.9986572265625L774.5061645507812,860.0416870117188L771.3395385742188,860.0416870117188L771.3395385742188,869.5416870117188L780.8395385742188,869.5416870117188L780.8395385742188,866.375L776.6982421875,866.3753662109375C778.978271484375,863.0299072265625,782.8189697265625,860.8333129882812,787.1728515625,860.8333129882812C794.16845703125,860.8333129882812,799.8395385742188,866.50439453125,799.8395385742188,873.5C799.8395385742188,880.49560546875,794.16845703125,886.1666870117188,787.1728515625,886.1666870117188C780.17724609375,886.1666870117188,774.5061645507812,880.49560546875,774.5061645507812,873.5L771.3395385742188,873.5C771.3395385742188,882.244384765625,778.4282836914062,889.3333129882812,787.1728515625,889.3333129882812C795.917236328125,889.3333129882812,803.0061645507812,882.244384765625,803.0061645507812,873.5ZM785.237060546875,867.9871215820312L792.5181274414062,872.84130859375C792.9880981445312,873.1546020507812,792.9880981445312,873.8452758789062,792.5181274414062,874.15869140625L785.2368774414062,879.0128784179688C784.7108764648438,879.3635864257812,784.0061645507812,878.9863891601562,784.0061645507812,878.35400390625L784.0061645507812,868.6459350585938C784.0061645507812,868.0136108398438,784.7108764648438,867.6364135742188,785.237060546875,867.9871215820312Z" stroke="none" stroke-width="0" style="fill:#f7f2f2;fill-opacity:1">
      </path>
    </g>
  </g>
</svg>