<svg width="33" xmlns="http://www.w3.org/2000/svg" height="33" id="screenshot-076e9449-6578-809e-8007-7bba4fd8e251" viewBox="437.5 173.925 33 33" style="-webkit-print-color-adjust::exact" xmlns:xlink="http://www.w3.org/1999/xlink" fill="none" version="1.1">
  <g id="shape-076e9449-6578-809e-8007-7bba4fd8e251">
    <g class="fills" id="fills-076e9449-6578-809e-8007-7bba4fd8e251">
      <path d="M467.75,173.92518615722656L445.75,173.92518615722656C444.2312316894531,173.92518615722656,443,175.15640258789062,443,176.67518615722656L443,179.42518615722656L440.25,179.42518615722656C438.7312316894531,179.42518615722656,437.5,180.65640258789062,437.5,182.17518615722656L437.5,204.17518615722656C437.5,205.6939697265625,438.7312316894531,206.92518615722656,440.25,206.92518615722656L462.25,206.92518615722656C463.7687683105469,206.92518615722656,465,205.6939697265625,465,204.17518615722656L465,201.42518615722656L467.75,201.42518615722656C469.2687683105469,201.42518615722656,470.5,200.1939697265625,470.5,198.67518615722656L470.5,176.67518615722656C470.5,175.15640258789062,469.2687683105469,173.92518615722656,467.75,173.92518615722656ZM445.75,176.67518615722656L467.75,176.67518615722656L467.75,188.59986877441406L464.87969970703125,185.72955322265625C463.805908203125,184.65646362304688,462.065673828125,184.65646362304688,460.9918518066406,185.72955322265625L448.0479431152344,198.67518615722656L445.75,198.67518615722656ZM462.25,204.17518615722656L440.25,204.17518615722656L440.25,182.17518615722656L443,182.17518615722656L443,198.67518615722656C443,200.1939697265625,444.2312316894531,201.42518615722656,445.75,201.42518615722656L462.25,201.42518615722656ZM467.75,198.67518615722656L451.9375,198.67518615722656L462.9375,187.67518615722656L467.75,192.48768615722656L467.75,198.67518615722656ZM452.625,187.67518615722656C454.9031677246094,187.67518615722656,456.75,185.828369140625,456.75,183.55018615722656C456.75,181.27200317382812,454.9031677246094,179.42518615722656,452.625,179.42518615722656C450.3468322753906,179.42518615722656,448.5,181.27200317382812,448.5,183.55018615722656C448.5,185.828369140625,450.3468322753906,187.67518615722656,452.625,187.67518615722656ZM452.625,182.17518615722656C453.3843994140625,182.17518615722656,454,182.79078674316406,454,183.55018615722656C454,184.30958557128906,453.3843994140625,184.92518615722656,452.625,184.92518615722656C451.8656005859375,184.92518615722656,451.25,184.30958557128906,451.25,183.55018615722656C451.25,182.79078674316406,451.8656005859375,182.17518615722656,452.625,182.17518615722656Z" style="fill:#9CA3AF;fill-opacity:1">
      </path>
    </g>
  </g>
</svg>